<svg width="40" height="40" viewBox="0 0 40 40" fill="none" xmlns="http://www.w3.org/2000/svg">
<rect width="40" height="40" rx="10" fill="white"/>
<path d="M15.8 27H12.38L6.66 18.34V27H3.24V12.96H6.66L12.38 21.66V12.96H15.8V27ZM17.5791 15.58V12.4H23.1191V27H19.5591V15.58H17.5791ZM25.4586 19.5C25.4586 17.2067 25.8986 15.4 26.7786 14.08C27.6719 12.76 29.1053 12.1 31.0786 12.1C33.0519 12.1 34.4786 12.76 35.3586 14.08C36.2519 15.4 36.6986 17.2067 36.6986 19.5C36.6986 21.82 36.2519 23.64 35.3586 24.96C34.4786 26.28 33.0519 26.94 31.0786 26.94C29.1053 26.94 27.6719 26.28 26.7786 24.96C25.8986 23.64 25.4586 21.82 25.4586 19.5ZM33.3386 19.5C33.3386 18.1533 33.1919 17.12 32.8986 16.4C32.6053 15.6667 31.9986 15.3 31.0786 15.3C30.1586 15.3 29.5519 15.6667 29.2586 16.4C28.9653 17.12 28.8186 18.1533 28.8186 19.5C28.8186 20.4067 28.8719 21.16 28.9786 21.76C29.0853 22.3467 29.2986 22.8267 29.6186 23.2C29.9519 23.56 30.4386 23.74 31.0786 23.74C31.7186 23.74 32.1986 23.56 32.5186 23.2C32.8519 22.8267 33.0719 22.3467 33.1786 21.76C33.2853 21.16 33.3386 20.4067 33.3386 19.5Z" fill="#F2860A"/>
</svg>
